<?xml version="1.0" encoding="UTF-8"?>
<svg width="100px" height="50px" viewBox="0 0 100 50" version="1.1" xmlns="http://www.w3.org/2000/svg" xmlns:xlink="http://www.w3.org/1999/xlink">
    <!-- Generator: Sketch 52.4 (67378) - http://www.bohemiancoding.com/sketch -->
    <title>Artboard</title>
    <desc>Created with Sketch.</desc>
    <g id="Artboard" stroke="none" stroke-width="1" fill="none" fill-rule="evenodd">
        <g id="Group-Copy" transform="translate(5.000000, 6.000000)" fill="#000000" fill-rule="nonzero">
            <path d="M45,0.36218 C40.133146,0.36218 35.744328,0.91164 32.40625,1.89343 C30.737211,2.38432 29.326758,2.97358 28.1875,3.76843 C27.127261,4.508149 26.16229,5.609096 26.03125,7.04968 C26.002969,7.1422 25.997342,7.238627 26,7.36218 L26,10.36218 L12,10.36218 C11.9375344,10.359249 11.8749656,10.359249 11.8125,10.36218 C11.0514155,10.4317995 10.3965281,10.9290288 10.125,11.64343 L1.125,35.64343 C0.887691306,36.2599028 0.970052892,36.9537863 1.34508083,37.4975768 C1.72010876,38.0413673 2.33943471,38.3649307 3,38.36218 L45,38.36218 L87,38.36218 C87.6605653,38.3649307 88.2798912,38.0413673 88.6549192,37.4975768 C89.0299471,36.9537863 89.1123087,36.2599028 88.875,35.64343 L79.875,11.64343 C79.6034719,10.9290288 78.9485845,10.4317995 78.1875,10.36218 C78.1250344,10.359249 78.0624656,10.359249 78,10.36218 L64,10.36218 L64,7.36218 C64.00266,7.23863 63.99703,7.14218 63.96875,7.04968 C63.83771,5.6091 62.872739,4.50815 61.8125,3.76843 C60.673242,2.97358 59.262789,2.38432 57.59375,1.89343 C54.255672,0.91164 49.866854,0.36218 45,0.36218 Z M45,4.36218 C49.551146,4.36218 53.661328,4.91147 56.46875,5.73718 C57.872461,6.15004 58.954571,6.64734 59.53125,7.04968 C59.707067,7.17233 59.80399,7.26113 59.875,7.33093 C59.813091,7.39349 59.763618,7.48131 59.53125,7.64343 C58.954571,8.04577 57.872461,8.54307 56.46875,8.95593 C53.661329,9.78164 49.551146,10.36218 45,10.36218 C40.448854,10.36218 36.338671,9.78164 33.53125,8.95593 C32.127539,8.54307 31.045429,8.04577 30.46875,7.64343 C30.236382,7.481311 30.186909,7.393492 30.125,7.33093 C30.196007,7.261085 30.292933,7.172332 30.46875,7.04968 C31.045429,6.64734 32.127539,6.15004 33.53125,5.73718 C36.338672,4.91147 40.448854,4.36218 45,4.36218 Z M29.9998235,11.92468 C30.731875,12.252139 31.530005,12.541963 32.40625,12.79968 C35.744329,13.78147 40.133146,14.36218 45,14.36218 C49.866854,14.36218 54.255671,13.78147 57.59375,12.79968 C58.469995,12.54196 59.268125,12.25214 60.0001765,11.92468 L60,21.26843 C60.003323,21.22233 59.963759,21.34173 59.53125,21.64343 C58.954571,22.04583 57.872461,22.54303 56.46875,22.95593 C53.661328,23.78163 49.551146,24.36218 45,24.36218 C40.448854,24.36218 36.338672,23.78163 33.53125,22.95593 C32.127539,22.54303 31.045429,22.04583 30.46875,21.64343 C30.036241,21.341705 29.996677,21.222305 30,21.26843 L29.9998235,11.92468 Z M13.375,14.36218 L26,14.36218 L26,21.36218 C26,22.96708 27.048242,24.12988 28.1875,24.92468 C29.326758,25.71948 30.737211,26.30878 32.40625,26.79968 C35.744328,27.78148 40.133146,28.36218 45,28.36218 C49.866854,28.36218 54.255672,27.78148 57.59375,26.79968 C59.262789,26.30878 60.673242,25.71948 61.8125,24.92468 C62.951758,24.12988 64,22.96708 64,21.36218 L64,14.36218 L76.625,14.36218 L84.125,34.36218 L45,34.36218 L5.875,34.36218 L13.375,14.36218 Z" id="Shape"></path>
        </g>
    </g>
</svg>