<?xml version="1.0" encoding="UTF-8"?>
<svg width="100px" height="50px" viewBox="0 0 100 50" version="1.1" xmlns="http://www.w3.org/2000/svg" xmlns:xlink="http://www.w3.org/1999/xlink">
    <!-- Generator: Sketch 52.4 (67378) - http://www.bohemiancoding.com/sketch -->
    <title>Artboard Copy 3</title>
    <desc>Created with Sketch.</desc>
    <g id="Artboard-Copy-3" stroke="none" stroke-width="1" fill="none" fill-rule="evenodd">
        <path d="M19.8257287,43 L42.5781577,43 C46.34726,43 49.4038864,39.8188758 49.4038864,35.8932332 L49.4038864,30.7059703 L76.3882671,30.7059703 C81.9996662,30.7059703 86.5670538,25.9518818 86.5670538,20.108089 C86.5670538,14.2642962 82.0009663,9.51020762 76.3882671,9.51020762 L74.4237574,9.51020762 C70.8444753,9.51020762 67.9308642,6.47798712 67.9308642,2.74998032 L67.9308642,2.51038076 C67.9308642,-1.21762604 70.8431751,-4.24984653 74.4237574,-4.24984653 L76.8212133,-4.24984653 C82.4339125,-4.24984653 87,-9.00393509 87,-14.8477279 L87,-43 L83.3141065,-43 L83.3141065,-14.8490816 C83.3141065,-11.1224284 80.4017956,-8.08885426 76.8212133,-8.08885426 L74.4237574,-8.08885426 C68.8123583,-8.08885426 64.2449707,-3.3347657 64.2449707,2.50902709 L64.2449707,2.74862665 C64.2449707,8.59106578 68.8110582,13.346508 74.4237574,13.346508 L76.3882671,13.346508 C79.9675492,13.346508 82.8811603,16.3787285 82.8811603,20.1067353 C82.8811603,23.8347421 79.9688494,26.8669626 76.3882671,26.8669626 L49.4038864,26.8669626 L49.4038864,21.678346 C49.4038864,17.7540571 46.34726,14.5715792 42.5781577,14.5715792 L19.8257287,14.5715792 C16.0566263,14.5715792 13,17.7540571 13,21.678346 L13,35.8918796 C13,39.8175222 16.0566263,43 19.8257287,43 Z" id="Path" fill="#000000"></path>
    </g>
</svg>