<?xml version="1.0" encoding="UTF-8"?>
<svg width="74px" height="86px" viewBox="0 0 74 86" version="1.1" xmlns="http://www.w3.org/2000/svg" xmlns:xlink="http://www.w3.org/1999/xlink">
    <!-- Generator: Sketch 52.4 (67378) - http://www.bohemiancoding.com/sketch -->
    <title>Path</title>
    <desc>Created with Sketch.</desc>
    <g id="Page-1" stroke="none" stroke-width="1" fill="none" fill-rule="evenodd">
        <g id="Artboard-Copy" transform="translate(-13.000000, -7.000000)" fill="#000000">
            <path d="M19.8257287,93 L42.5781577,93 C46.34726,93 49.4038864,89.8188758 49.4038864,85.8932332 L49.4038864,80.7059703 L76.3882671,80.7059703 C81.9996662,80.7059703 86.5670538,75.9518818 86.5670538,70.108089 C86.5670538,64.2642962 82.0009663,59.5102076 76.3882671,59.5102076 L74.4237574,59.5102076 C70.8444753,59.5102076 67.9308642,56.4779871 67.9308642,52.7499803 L67.9308642,52.5103808 C67.9308642,48.782374 70.8431751,45.7501535 74.4237574,45.7501535 L76.8212133,45.7501535 C82.4339125,45.7501535 87,40.9960649 87,35.1522721 L87,7 L83.3141065,7 L83.3141065,35.1509184 C83.3141065,38.8775716 80.4017956,41.9111457 76.8212133,41.9111457 L74.4237574,41.9111457 C68.8123583,41.9111457 64.2449707,46.6652343 64.2449707,52.5090271 L64.2449707,52.7486267 C64.2449707,58.5910658 68.8110582,63.346508 74.4237574,63.346508 L76.3882671,63.346508 C79.9675492,63.346508 82.8811603,66.3787285 82.8811603,70.1067353 C82.8811603,73.8347421 79.9688494,76.8669626 76.3882671,76.8669626 L49.4038864,76.8669626 L49.4038864,71.678346 C49.4038864,67.7540571 46.34726,64.5715792 42.5781577,64.5715792 L19.8257287,64.5715792 C16.0566263,64.5715792 13,67.7540571 13,71.678346 L13,85.8918796 C13,89.8175222 16.0566263,93 19.8257287,93 Z" id="Path"></path>
        </g>
    </g>
</svg>