<?xml version="1.0" encoding="UTF-8"?>
<svg width="100px" height="50px" viewBox="0 0 100 50" version="1.1" xmlns="http://www.w3.org/2000/svg" xmlns:xlink="http://www.w3.org/1999/xlink">
    <!-- Generator: Sketch 52.4 (67378) - http://www.bohemiancoding.com/sketch -->
    <title>Artboard Copy 2</title>
    <desc>Created with Sketch.</desc>
    <g id="Artboard-Copy-2" stroke="none" stroke-width="1" fill="none" fill-rule="evenodd">
        <path d="M5,10 L5,39.3 L94.3,39.3 L94.3,10 L5,10 Z M91.6,36.4 L7.8,36.4 L7.8,12.8 L17.5,12.8 L17.5,20.8 L20.3,20.8 L20.3,12.8 L29.9,12.8 L29.9,20.8 L32.7,20.8 L32.7,12.8 L42.3,12.8 L42.3,20.8 L45.1,20.8 L45.1,12.8 L54.7,12.8 L54.7,20.8 L57.5,20.8 L57.5,12.8 L67.1,12.8 L67.1,20.8 L69.9,20.8 L69.9,12.8 L79.5,12.8 L79.5,20.8 L82.3,20.8 L82.3,12.8 L91.7,12.8 L91.7,36.4 L91.6,36.4 Z" id="Shape" fill="#000000" fill-rule="nonzero"></path>
    </g>
</svg>